<?xml version="1.0" encoding="UTF-8" standalone="no"?>
<!-- Created with Inkscape (http://www.inkscape.org/) -->

<svg
   width="207.53711mm"
   height="119.00879mm"
   viewBox="0 0 207.53711 119.00879"
   version="1.1"
   id="svg5"
   inkscape:version="1.2.2 (732a01da63, 2022-12-09)"
   sodipodi:docname="Name-Color.svg"
   inkscape:export-filename="Logo-BW.svg"
   inkscape:export-xdpi="96"
   inkscape:export-ydpi="96"
   xmlns:inkscape="http://www.inkscape.org/namespaces/inkscape"
   xmlns:sodipodi="http://sodipodi.sourceforge.net/DTD/sodipodi-0.dtd"
   xmlns="http://www.w3.org/2000/svg"
   xmlns:svg="http://www.w3.org/2000/svg">
  <sodipodi:namedview
     id="namedview7"
     pagecolor="#505050"
     bordercolor="#eeeeee"
     borderopacity="1"
     inkscape:showpageshadow="0"
     inkscape:pageopacity="0"
     inkscape:pagecheckerboard="0"
     inkscape:deskcolor="#505050"
     inkscape:document-units="mm"
     showgrid="false"
     showguides="false"
     inkscape:zoom="1"
     inkscape:cx="503"
     inkscape:cy="426.5"
     inkscape:window-width="1920"
     inkscape:window-height="991"
     inkscape:window-x="1911"
     inkscape:window-y="-9"
     inkscape:window-maximized="1"
     inkscape:current-layer="text2740-9">
    <sodipodi:guide
       position="-1389.2323,-690.38675"
       orientation="1,0"
       id="guide1167"
       inkscape:locked="false" />
    <sodipodi:guide
       position="-1389.2323,-749.89112"
       orientation="0,-1"
       id="guide1171"
       inkscape:locked="false" />
    <sodipodi:guide
       position="-1223.6866,-526.37819"
       orientation="0,-1"
       id="guide12615"
       inkscape:locked="false" />
    <sodipodi:guide
       position="-1189.5161,-584.88049"
       orientation="0,-1"
       id="guide12617"
       inkscape:locked="false" />
    <sodipodi:guide
       position="-1190.3801,-584.38049"
       orientation="0,-1"
       id="guide12619"
       inkscape:locked="false" />
    <sodipodi:guide
       position="-1190.3801,-584.38049"
       orientation="1,0"
       id="guide12621"
       inkscape:locked="false" />
    <sodipodi:guide
       position="-1189.5158,-584.88048"
       orientation="1,0"
       id="guide12623"
       inkscape:locked="false" />
    <sodipodi:guide
       position="-722.11432,-416.65441"
       orientation="0,-1"
       id="guide14509"
       inkscape:locked="false" />
    <sodipodi:guide
       position="-607.50473,-498.36888"
       orientation="0,-1"
       id="guide14525"
       inkscape:locked="false" />
    <sodipodi:guide
       position="-579.44143,-479.66002"
       orientation="1,0"
       id="guide14653"
       inkscape:locked="false" />
    <sodipodi:guide
       position="-609.7498,-292.19716"
       orientation="0,1"
       id="guide14657"
       inkscape:locked="false" />
    <sodipodi:guide
       position="-550.2556,-319.88628"
       orientation="1,0"
       id="guide14670"
       inkscape:locked="false" />
    <sodipodi:guide
       position="-778.75846,-460.03097"
       orientation="0,-1"
       id="guide14766"
       inkscape:locked="false" />
    <sodipodi:guide
       position="-770.4686,-400.58016"
       orientation="-1,0"
       id="guide14842"
       inkscape:locked="false" />
    <sodipodi:guide
       position="-812.92824,-400.52659"
       orientation="0,-1"
       id="guide14873"
       inkscape:locked="false" />
    <sodipodi:guide
       position="-806.5782,-411.58476"
       orientation="1,0"
       id="guide14875"
       inkscape:locked="false" />
    <sodipodi:guide
       position="-812.92824,-400.52659"
       orientation="0,-1"
       id="guide14879"
       inkscape:locked="false" />
    <sodipodi:guide
       position="-762.61656,-404.72763"
       orientation="1,0"
       id="guide15036"
       inkscape:locked="false" />
    <sodipodi:guide
       position="-762.61658,-410.91711"
       orientation="0,-1"
       id="guide15038"
       inkscape:locked="false" />
    <sodipodi:guide
       position="-762.61658,-351.37685"
       orientation="0,-1"
       id="guide15062"
       inkscape:locked="false" />
    <sodipodi:guide
       position="-754.74674,-424.0725"
       orientation="0,-1"
       id="guide15070"
       inkscape:locked="false" />
    <sodipodi:guide
       position="-671.57821,-400.52655"
       orientation="1,0"
       id="guide15072"
       inkscape:locked="false" />
    <sodipodi:guide
       position="-724.59525,-394.67639"
       orientation="1,0"
       id="guide15074"
       inkscape:locked="false" />
    <sodipodi:guide
       position="-755.75556,-378.62908"
       orientation="1,0"
       id="guide15076"
       inkscape:locked="false" />
    <sodipodi:guide
       position="-1003.237,-305.55588"
       orientation="0,-1"
       id="guide541"
       inkscape:locked="false" />
    <sodipodi:guide
       position="-1020.3219,-246.0515"
       orientation="0,-1"
       id="guide543"
       inkscape:locked="false" />
    <sodipodi:guide
       position="-972.34586,-258.32947"
       orientation="0,1"
       id="guide1158"
       inkscape:locked="false" />
    <sodipodi:guide
       position="-972.34586,-252.37634"
       orientation="0,1"
       id="guide1160"
       inkscape:locked="false" />
    <sodipodi:guide
       position="-972.34587,-252.37633"
       orientation="1,0"
       id="guide1162"
       inkscape:locked="false" />
    <sodipodi:guide
       position="-1051.1584,-226.21678"
       orientation="0,-1"
       id="guide1330"
       inkscape:locked="false" />
    <sodipodi:guide
       position="-1043.1401,-236.1342"
       orientation="0,-1"
       id="guide1336"
       inkscape:locked="false" />
    <sodipodi:guide
       position="-996.71084,-228.9767"
       orientation="0.49797261,0.86719276"
       id="guide1338"
       inkscape:locked="false" />
    <sodipodi:guide
       position="-997.18538,-236.13418"
       orientation="1,0"
       id="guide1369"
       inkscape:locked="false" />
    <sodipodi:guide
       position="-962.42854,-266.07853"
       orientation="0,1"
       id="guide1372"
       inkscape:locked="false" />
    <sodipodi:guide
       position="-962.42854,-279.50697"
       orientation="1,0"
       id="guide2102"
       inkscape:locked="false" />
    <sodipodi:guide
       position="-720.83198,-97.053772"
       orientation="0,-1"
       id="guide2578"
       inkscape:locked="false" />
    <sodipodi:guide
       position="-686.69299,-156.55816"
       orientation="0,-1"
       id="guide2580"
       inkscape:locked="false" />
    <sodipodi:guide
       position="-720.83281,-37.549241"
       orientation="0,-1"
       id="guide2634"
       inkscape:locked="false" />
    <sodipodi:guide
       position="-319.26532,48.44627"
       orientation="1,0"
       id="guide2921"
       inkscape:locked="false" />
  </sodipodi:namedview>
  <defs
     id="defs2">
    <rect
       x="4537.8618"
       y="-2244.262"
       width="556.84949"
       height="224.89841"
       id="rect2742-5" />
    <rect
       x="4537.8618"
       y="-2244.262"
       width="556.84949"
       height="224.89841"
       id="rect2742-7-3" />
  </defs>
  <g
     inkscape:label="Option1"
     id="layer1-2-0-4-0-0-7-3-8-9"
     style="display:inline"
     transform="translate(-66.038908,-156.09684)"
     inkscape:export-filename=".\layer1-2-0-4-0-0-7-3.svg"
     inkscape:export-xdpi="96"
     inkscape:export-ydpi="96">
    <g
       id="layer3-9-3-8-4-5-9-1-7-4"
       inkscape:label="L"
       inkscape:groupmode="layer">
      <path
         style="fill:#009fe3;fill-opacity:1;stroke:none;stroke-width:0.499999;stroke-linecap:round;stroke-linejoin:round;stroke-opacity:1;paint-order:markers fill stroke"
         d="m 100.2084,215.60121 v 59.50437 h 34.16977 l -3.64645,-6.35004 h -24.17328 v -42.09616 z"
         id="path2034-1-9-3-8-0-9-9-4-9" />
    </g>
    <g
       inkscape:groupmode="layer"
       id="layer4-0-0-7-8-2-5-6-4-5"
       inkscape:label="L 1" />
    <path
       id="path2036-6-9-3-4-6-2"
       style="display:inline;fill:#004f71;fill-opacity:1;stroke:none;stroke-width:0.499999;stroke-linecap:round;stroke-linejoin:round;stroke-opacity:1;paint-order:markers fill stroke"
       d="m 633.01958,-6.93604 -34.16949,59.50438 h 3.63596 l 11.91916,-20.75636 h 12.26437 v 20.75636 h 6.35 z m -6.35,16.61196 v 15.78606 h -8.61808 z"
       sodipodi:nodetypes="cccccccccccc"
       transform="translate(-532.81118,163.03287)" />
  </g>
  <g
     aria-label="ivick"
     transform="matrix(0.4418599,0,0,0.4418599,-1934.8717,1059.7557)"
     id="text2740-9"
     style="font-size:96px;line-height:1.5;font-family:North;-inkscape-font-specification:'North, ';white-space:pre;shape-inside:url(#rect2742-5);fill:#009fe3;stroke-width:3.77953;stroke-linecap:square;paint-order:markers fill stroke">
    <path
       d="m 4564.2613,-2215.4617 v 86.4 h -14.4 v -86.4 z"
       id="path9479" />
    <path
       d="m 4653.0612,-2215.4617 h -16.8 l -21.6,52.8 -21.6,-52.8 h -16.8 l 38.4,86.4 z"
       id="path9481" />
    <path
       d="m 4679.4612,-2215.4617 v 86.4 h -14.4 v -86.4 z"
       id="path9483" />
    <path
       d="m 4769.9892,-2141.7337 c -7.776,7.872 -18.624,12.672 -30.528,12.672 -23.808,0 -43.2,-19.392 -43.2,-43.2 0,-23.808 19.392,-43.2 43.2,-43.2 11.904,0 22.752,4.8 30.528,12.672 l -10.176,10.176 c -5.184,-5.184 -12.384,-8.448 -20.352,-8.448 -15.936,0 -28.8,12.864 -28.8,28.8 0,15.936 12.864,28.8 28.8,28.8 7.968,0 15.168,-3.264 20.352,-8.448 z"
       id="path9485" />
    <path
       d="m 4798.7891,-2180.3257 27.36,-35.136 h 20.64 l -33.6,43.2 33.6,43.2 h -20.64 l -27.36,-35.136 v 35.136 h -14.4 v -86.4 h 14.4 z"
       id="path9487" />
  </g>
  <g
     aria-label="bigail"
     transform="matrix(0.4418599,0,0,0.4418599,-1965.115,1000.2514)"
     id="text2740-5-0"
     style="font-size:96px;font-family:North;-inkscape-font-specification:'North, ';white-space:pre;fill:#004f71;stroke-width:3.77953;stroke-linecap:square;paint-order:markers fill stroke">
    <path
       d="m 4582.3093,-2129.0617 h -37.248 v -86.4 h 30.048 c 13.92,0 25.152,11.328 25.152,25.152 0,5.472 -1.728,10.56 -4.704,14.688 7.2,4.416 11.904,12.384 11.904,21.312 0,13.92 -11.232,25.152 -25.152,25.248 z m -7.296,-72 h -15.552 v 21.6 h 15.552 c 6.048,0 10.848,-4.8 10.848,-10.848 0,-5.952 -4.8,-10.752 -10.848,-10.752 z m -15.552,36 v 21.6 h 22.848 c 5.952,0 10.752,-4.8 10.752,-10.848 0,-5.952 -4.8,-10.752 -10.752,-10.752 z"
       id="path9454" />
    <path
       d="m 4638.6613,-2215.4617 v 86.4 h -14.4 v -86.4 z"
       id="path9456" />
    <path
       d="m 4741.8613,-2172.2617 c 0,23.808 -19.392,43.2 -43.2,43.2 -23.808,0 -43.2,-19.392 -43.2,-43.2 0,-23.808 19.392,-43.2 43.2,-43.2 11.904,0 22.752,4.8 30.528,12.672 l -10.176,10.176 c -5.184,-5.184 -12.384,-8.448 -20.352,-8.448 -15.936,0 -28.8,12.864 -28.8,28.8 0,15.936 12.864,28.8 28.8,28.8 13.44,0 24.672,-9.216 27.936,-21.6 h -25.536 l -2.4,-14.4 h 43.2 z"
       id="path9458" />
    <path
       d="m 4823.4612,-2129.0617 h -16.8 l -5.856,-14.4 h -31.488 l -5.856,14.4 h -16.8 l 38.4,-86.4 z m -48.192,-28.8 h 19.584 l -9.792,-24 z"
       id="path9460" />
    <path
       d="m 4849.8612,-2215.4617 v 86.4 h -14.4 v -86.4 z"
       id="path9462" />
    <path
       d="m 4883.4611,-2215.4617 v 72 h 33.6 l -4.8,14.4 h -43.2 v -86.4 z"
       id="path9464" />
  </g>
</svg>
